<?xml version="1.0" encoding="UTF-8"?>
<svg id="Layer_1" xmlns="http://www.w3.org/2000/svg" version="1.1" viewBox="0 0 240 100">
  <!-- Generator: Adobe Illustrator 30.2.1, SVG Export Plug-In . SVG Version: 2.1.1 Build 1)  -->
  <defs>
    <style>
      .st0 {
        fill: #1782ff;
      }

      .st1 {
        fill: #fff;
      }
    </style>
  </defs>
  <rect class="st0" x="0" width="240" height="100" rx="4" ry="4"/>
  <g>
    <path class="st1" d="M52.6,20.5c-3,0-5.8,1.7-7,4.5l-25.5,54.5s0,0,0,0h5.8c2.6,0,4.6-1.3,5.8-3.9l4.6-9.8,3.6-7.9,11.9-25.3c.3-.7,1.2-.7,1.6,0l11.9,25.3c0,.1,0,.1,0,0l3.6,7.8c0,.2,0,.1,0,0l4.6,9.8c1.2,2.6,3.2,3.9,5.8,3.9h5.8s0,0,0,0l-25.5-54.5c-1.3-2.7-4-4.5-7-4.5Z"/>
    <path class="st1" d="M133.1,53.9c11.2,0,16.8-5.6,16.8-16.7s-5.6-16.7-16.8-16.7h-40.5v59h5.9c2.6,0,4-1.3,4-3.9v-21.6h17.3l18.2,21.6c2.2,2.6,4.6,3.9,7.2,3.9h7.7l-21.5-25.6h1.7ZM102.5,46.1v-17.7h28.6c5.9,0,8.9,2.9,8.9,8.8s-3,8.9-8.9,8.9h-28.6Z"/>
    <path class="st1" d="M220,20.5h-7.7c-2.6,0-5,1.3-7.2,3.9l-18.2,21.6h-17.3v-21.6c0-2.6-1.3-3.9-4-3.9h-5.9v59h5.9c2.6,0,4-1.3,4-3.9v-21.6h17.3l18.2,21.6c2.2,2.6,4.6,3.9,7.2,3.9h7.7l-24.9-29.5,24.9-29.5Z"/>
    <path class="st1" d="M52.6,46c0,5.7-4.3,10-10,10,5.7,0,10,4.3,10,10,0-5.7,4.3-10,10-10-5.7,0-10-4.3-10-10Z"/>
  </g>
</svg>