<?xml version="1.0" encoding="UTF-8"?>
<svg id="Layer_1" xmlns="http://www.w3.org/2000/svg" version="1.1" viewBox="0 0 240 100">
  <!-- Generator: Adobe Illustrator 30.2.1, SVG Export Plug-In . SVG Version: 2.1.1 Build 1)  -->
  <defs>
    <style>
      .st0 {
        fill: #1782ff;
      }

      .st1 {
        fill: #fff;
      }
    </style>
  </defs>
  <rect class="st0" x="0" width="240" height="100" rx="4" ry="4"/>
  <g>
    <path class="st1" d="M134.4,53.9c11.2,0,16.8-5.6,16.8-16.7s-5.6-16.7-16.8-16.7h-40.5v59h5.9c2.6,0,4-1.3,4-3.9v-21.6h17.3l18.2,21.6c2.2,2.6,4.6,3.9,7.2,3.9h7.7l-21.5-25.6h1.7ZM103.8,46.1v-17.7h28.6c5.9,0,8.9,2.9,8.9,8.8s-3,8.9-8.9,8.9h-28.6Z"/>
    <path class="st1" d="M221.3,20.5h-7.7c-2.6,0-5,1.3-7.2,3.9l-18.2,21.6h-17.3v-21.6c0-2.6-1.3-3.9-4-3.9h-5.9v59h5.9c2.6,0,4-1.3,4-3.9v-21.6h17.3l18.2,21.6c2.2,2.6,4.6,3.9,7.2,3.9h7.7l-24.9-29.5,24.9-29.5Z"/>
    <path class="st1" d="M53.9,46c0,5.7-4.3,10-10,10,5.7,0,10,4.3,10,10,0-5.7,4.3-10,10-10-5.7,0-10-4.3-10-10Z"/>
    <path class="st1" d="M54.3,20.5c-3.3,0-6.2,1.7-7.6,4.4l-28,54.1s0,0,0,0h6.3c2.9,0,5-1.2,6.3-3.8l5-9.8,4-7.8,13-25.1c.3-.7,1.4-.6,1.7,0l12.7,25.3c0,.1,0,.1,0,0l3.8,7.8c0,.2,0,.1,0,0l4.9,9.8c1.3,2.6,3.5,3.9,6.3,4h6.3s0,0,0,0l-27.4-54.5c-1.4-2.7-4.3-4.5-7.6-4.5Z"/>
  </g>
</svg>